# xmcd
#
# Track frame offsets:
#	150
#	21125
#	42337
#	57849
#	76825
#	94407
#	114022
#	129339
#	156470
#	175692
#	195775
#	214046
#	233700
#	254917
#	273794
#
# Disc length: 3882
#
# Revision: 2
# Processed by: cddbd v1.5.1PL0 Copyright (c) Steve Scherf et al.
# Submitted via: EasyCDDAExtractor 5.0.6
# Normalized: r1:DSETVAR1
#
DISCID=be0f280f
DTITLE=Various Artist - the best of
DYEAR=1900
DGENRE=
TTITLE0=cock robin - Piste01
TTITLE1=Piste02
TTITLE2=Piste03
TTITLE3=Piste04
TTITLE4=Piste05
TTITLE5=Piste06
TTITLE6=Piste07
TTITLE7=Piste08
TTITLE8=Piste09
TTITLE9=Piste10
TTITLE10=Piste11
TTITLE11=Piste12
TTITLE12=Piste13
TTITLE13=Piste14
TTITLE14=Piste15
EXTD=
EXTT0=
EXTT1=
EXTT2=
EXTT3=
EXTT4=
EXTT5=
EXTT6=
EXTT7=
EXTT8=
EXTT9=
EXTT10=
EXTT11=
EXTT12=
EXTT13=
EXTT14=
PLAYORDER=
